# xmcd CD database file
#
# Track frame offsets:
#	150
#	18806
#	42078
#	64104
#	76802
#	87645
#	108897
#	125190
#	143946
#	164055
#	182372
#	199425
#	210471
#	227869
#
# Disc length: 3340 seconds
#
# Revision: 4
# Processed by: cddbd v1.5.2PL0 Copyright (c) Steve Scherf et al.
# Submitted via: CDex 1.60beta1-cs1
#
DISCID=c20d0a0e
DTITLE=Ella Fitzgerald and Joe Pass - Fitzgerald and Pass... Again [1976]
DYEAR=1976
DGENRE=Jazz
TTITLE0=I Ain's Got Nothin' But the Blues
TTITLE1='Tis Autumn
TTITLE2=My Old Flame
TTITLE3=That Old Feeling
TTITLE4=Rain
TTITLE5=I Didn't Know About You
TTITLE6=You Took Advantage of Me
TTITLE7=I've Got the World On a String
TTITLE8=All Too Soon
TTITLE9=The One I Love (Belongs To Somebody Else)
TTITLE10=Solitude
TTITLE11=Nature Boy
TTITLE12=Tennessee Waltz
TTITLE13=One Note Samba
EXTD=YEAR: 1976
EXTT0=
EXTT1=
EXTT2=
EXTT3=
EXTT4=
EXTT5=
EXTT6=
EXTT7=
EXTT8=
EXTT9=
EXTT10=
EXTT11=
EXTT12=
EXTT13=
PLAYORDER=
